<?xml version="1.0" standalone="no"?>
<!DOCTYPE svg PUBLIC "-//W3C//DTD SVG 20010904//EN"
 "http://www.w3.org/TR/2001/REC-SVG-20010904/DTD/svg10.dtd">
<svg version="1.0" xmlns="http://www.w3.org/2000/svg"
 width="240.000000pt" height="240.000000pt" viewBox="0 0 240.000000 240.000000"
 preserveAspectRatio="xMidYMid meet">
<metadata>
Created by potrace 1.11, written by Peter Selinger 2001-2013
</metadata>
<g transform="translate(0.000000,240.000000) scale(0.100000,-0.100000)"
fill="#000000" stroke="none">
<path d="M0 1200 l0 -1200 1200 0 1200 0 0 1200 0 1200 -1200 0 -1200 0 0
-1200z m965 856 c253 -125 309 -437 112 -623 -98 -93 -203 -128 -357 -120
-117 6 -180 25 -256 77 -114 76 -163 171 -164 312 0 113 24 178 92 253 79 87
167 131 288 143 107 12 205 -3 285 -42z m-26 -982 c36 -10 67 -30 102 -63 l49
-47 32 33 c52 53 141 93 208 93 126 0 224 -54 268 -148 27 -57 27 -58 30 -339
l4 -283 -136 0 -136 0 0 225 c0 246 -6 279 -54 311 -33 21 -95 23 -129 5 -51
-27 -57 -58 -57 -310 l0 -231 -135 0 -135 0 0 239 0 239 -26 31 c-50 59 -143
58 -188 -2 -20 -27 -21 -43 -24 -268 l-4 -239 -129 0 -129 0 0 375 0 375 129
0 130 0 3 -35 3 -36 42 31 c81 60 178 75 282 44z m1088 -465 c48 -30 73 -77
73 -137 0 -63 -12 -95 -47 -128 -37 -35 -68 -46 -126 -45 -109 0 -186 104
-157 211 30 111 158 160 257 99z"/>
<path d="M705 1871 c-106 -26 -157 -149 -105 -251 54 -106 229 -106 289 0 26
46 28 118 4 167 -29 63 -117 102 -188 84z"/>
</g>
</svg>
